# xmcd
#
# Track frame offsets:
#       150
#       22698
#       37971
#       56469
#       71292
#       86715
#       104088
#       120636
#       137409
#       152382
#       165630
#       181728
#
# Disc length: 2655 seconds
#
# Revision: 4
# Processed by: cddbd v1.5.2PL0 Copyright (c) Steve Scherf et al.
# Submitted via: WhereIsIt 3.84
#
DISCID=880a5d0c
DTITLE=Dolly Parton - Those Were The Days
DYEAR=2005
DGENRE=Country
TTITLE0=Those Were The Days (With Mary Hopkin Porter Wagoner and The Opry Gang
TTITLE0=and The Moscow Circus)
TTITLE1=Blowin In The Wind (With Nickel Creek)
TTITLE2=Where Have All The Flowers Gone (With Norah Jones and Lee Ann Womack)
TTITLE3=Twelfth Of Never (With Keith Urban)
TTITLE4=Where Do The Children Play (With Yusuf Islam Cat Stevens)
TTITLE5=Me And Bobby McGee (With Kris Kristofferson)
TTITLE6=Crimson And Clover (With Tommy James)
TTITLE7=The Cruel War (With Alison Krauss Mindy Smith and Dan Tyminski)
TTITLE8=Turn Turn Turn (With Roger McGuinn)
TTITLE9=If I Were A Carpenter (With Joe Nichols)
TTITLE10=Both Sides Now (With Judy Collins and Rhonda Vincent)
TTITLE11=Imagine (With David Foster)
EXTD=
EXTT0=
EXTT1=
EXTT2=
EXTT3=
EXTT4=
EXTT5=
EXTT6=
EXTT7=
EXTT8=
EXTT9=
EXTT10=
EXTT11=
PLAYORDER=
